<svg width="92" height="127" viewBox="0 0 92 127" xmlns="http://www.w3.org/2000/svg"><title>pin_red</title><g fill="none" fill-rule="evenodd"><path d="M35.6 115c-25-33-52.8-64-20.3-101.3C29.7-.3 47.3-1 65.7 5.5c51.3 29.7 14 78-10.3 110l-9.4 11c-.3-.5-6.2-6.3-10.4-11.5zm25.8-39c34.3-24.7 7.8-72-29.8-56C20.6 25.7 15 36 15 48c-.6 11.7 5.6 21.5 15.5 27.4 7 4 10 4.6 18 4 5.3-.2 8.3-1 13-3.5z" fill="#005479"/><path d="M36.2 87.6c-24.2-5-39.7-28.2-34.7-52 5-23.5 28.6-38.8 53-34 24 4.7 40 27.6 35.2 51.3-4.7 23.6-28 39-52.4 34.7l-1-.2zM41 69.4C29 66.8 21.5 55 24 42.8c2.4-12.2 14-20 26-17.6 12 2.4 19.6 14.2 17.3 26.4-2.3 12.2-13.8 20.2-25.7 18l-.6-.2z" fill="#005479"/><path d="M39 81.4c-18-4-29.4-22-25.7-40.7C17 22.2 34.6 10.2 52.6 14c18 3.5 29.8 21.5 26.4 40-3.7 18.8-21 31-39 27.6l-1-.2zm2-12C29 66.8 21.5 55 24 42.8c2.4-12.2 14-20 26-17.6 12 2.4 19.6 14.2 17.3 26.4-2.3 12.2-13.8 20.2-25.7 18l-.6-.2z" fill="#0074BA"/></g></svg>